<?xml version="1.0" encoding="UTF-8"?>
<svg width="20px" height="20px" viewBox="0 0 20 20" version="1.1" xmlns="http://www.w3.org/2000/svg" xmlns:xlink="http://www.w3.org/1999/xlink">
    <!-- Generator: Sketch 50.2 (55047) - http://www.bohemiancoding.com/sketch -->
    <title>icon-passenger</title>
    <desc>Created with Sketch.</desc>
    <defs></defs>
    <g id="icon-passenger" stroke="none" stroke-width="1" fill="none" fill-rule="evenodd">
        <path d="M10.1875,5.375 C9.95312383,5.375 9.73339946,5.33105513 9.52832031,5.24316406 C9.32324116,5.155273 9.14453201,5.03515701 8.9921875,4.8828125 C8.83984299,4.73046799 8.719727,4.55175884 8.63183594,4.34667969 C8.54394487,4.14160054 8.5,3.92187617 8.5,3.6875 C8.5,3.45312383 8.54394487,3.23339946 8.63183594,3.02832031 C8.719727,2.82324116 8.83984299,2.64453201 8.9921875,2.4921875 C9.14453201,2.33984299 9.32324116,2.219727 9.52832031,2.13183594 C9.73339946,2.04394487 9.95312383,2 10.1875,2 C10.4218762,2 10.6416005,2.04394487 10.8466797,2.13183594 C11.0517588,2.219727 11.230468,2.33984299 11.3828125,2.4921875 C11.535157,2.64453201 11.655273,2.82324116 11.7431641,3.02832031 C11.8310551,3.23339946 11.875,3.45312383 11.875,3.6875 C11.875,3.92187617 11.8310551,4.14160054 11.7431641,4.34667969 C11.655273,4.55175884 11.535157,4.73046799 11.3828125,4.8828125 C11.230468,5.03515701 11.0517588,5.155273 10.8466797,5.24316406 C10.6416005,5.33105513 10.4218762,5.375 10.1875,5.375 Z M14.6875,7.625 C14.8457039,7.625 14.9921868,7.65429658 15.1269531,7.71289062 C15.2617194,7.77148467 15.3803706,7.85205027 15.4829102,7.95458984 C15.5854497,8.05712942 15.6660153,8.17578058 15.7246094,8.31054688 C15.7832034,8.44531317 15.8125,8.59179608 15.8125,8.75 C15.8125,8.90820392 15.7832034,9.05468683 15.7246094,9.18945312 C15.6660153,9.32421942 15.5854497,9.44287058 15.4829102,9.54541016 C15.3803706,9.64794973 15.2617194,9.72851533 15.1269531,9.78710938 C14.9921868,9.84570342 14.8457039,9.875 14.6875,9.875 L12.3408203,9.875 C12.1943352,9.875 12.0522468,9.84570342 11.9145508,9.78710938 C11.7768548,9.72851533 11.655274,9.64941456 11.5498047,9.54980469 L10.75,8.75 L10.0732422,11.4482422 L12.6748047,14.0498047 C12.780274,14.155274 12.8608396,14.2768548 12.9165039,14.4145508 C12.9721682,14.5522468 13,14.6943352 13,14.8408203 L13,17.75 C13,17.9082039 12.9707034,18.0546868 12.9121094,18.1894531 C12.8535153,18.3242194 12.7729497,18.4428706 12.6704102,18.5454102 C12.5678706,18.6479497 12.4492194,18.7285153 12.3144531,18.7871094 C12.1796868,18.8457034 12.0332039,18.875 11.875,18.875 C11.7167961,18.875 11.5703132,18.8457034 11.4355469,18.7871094 C11.3007806,18.7285153 11.1821294,18.6479497 11.0795898,18.5454102 C10.9770503,18.4428706 10.8964847,18.3242194 10.8378906,18.1894531 C10.7792966,18.0546868 10.75,17.9082039 10.75,17.75 L10.75,15.5 L8.40332031,13.1533203 L7.70898438,16.3349609 C7.65039033,16.6103529 7.59472683,16.8872056 7.54199219,17.1655273 C7.48925755,17.443849 7.42480507,17.7177721 7.34863281,17.9873047 C7.27246056,18.2509779 7.14062594,18.4648429 6.953125,18.6289062 C6.76562406,18.7929696 6.53125141,18.875 6.25,18.875 C6.09765549,18.875 5.95263741,18.8457034 5.81494141,18.7871094 C5.67724541,18.7285153 5.55712942,18.6479497 5.45458984,18.5454102 C5.35205027,18.4428706 5.27148467,18.3242194 5.21289062,18.1894531 C5.15429658,18.0546868 5.125,17.9082039 5.125,17.75 C5.125,17.6738277 5.13378897,17.594727 5.15136719,17.5126953 C5.25097706,16.9677707 5.36523373,16.4272488 5.49414062,15.8911133 C5.62304752,15.3549778 5.74609316,14.8173855 5.86328125,14.2783203 C6.10937623,13.1708929 6.35107303,12.0678766 6.58837891,10.9692383 C6.82568478,9.87059998 7.06445192,8.76758366 7.3046875,7.66015625 L6.25,8.1875 L6.25,10.4375 C6.25,10.5957039 6.22070342,10.7421868 6.16210938,10.8769531 C6.10351533,11.0117194 6.02294973,11.1303706 5.92041016,11.2329102 C5.81787058,11.3354497 5.69921942,11.4160153 5.56445312,11.4746094 C5.42968683,11.5332034 5.28320392,11.5625 5.125,11.5625 C4.96679608,11.5625 4.82031317,11.5332034 4.68554688,11.4746094 C4.55078058,11.4160153 4.43212942,11.3354497 4.32958984,11.2329102 C4.22705027,11.1303706 4.14648467,11.0117194 4.08789062,10.8769531 C4.02929658,10.7421868 4,10.5957039 4,10.4375 L4,7.47558594 C4,7.25878798 4.05566351,7.06250088 4.16699219,6.88671875 C4.27832087,6.71093662 4.4306631,6.57324269 4.62402344,6.47363281 L6.33789062,5.61230469 C6.65429846,5.45410077 6.99120915,5.375 7.34863281,5.375 L7.9375,5.375 C8.20117319,5.73242366 8.53075974,6.00927636 8.92626953,6.20556641 C9.32177932,6.40185645 9.74218527,6.5 10.1875,6.5 C10.6679712,6.5 11.1162089,6.38574333 11.5322266,6.15722656 L13,7.625 L14.6875,7.625 Z" id="icon" fill="#555555"></path>
    </g>
</svg>