<?xml version="1.0" encoding="UTF-8"?>
<svg width="20px" height="20px" viewBox="0 0 20 20" version="1.1" xmlns="http://www.w3.org/2000/svg" xmlns:xlink="http://www.w3.org/1999/xlink">
    <!-- Generator: Sketch 50.2 (55047) - http://www.bohemiancoding.com/sketch -->
    <title>icon-class</title>
    <desc>Created with Sketch.</desc>
    <defs></defs>
    <g id="icon-class" stroke="none" stroke-width="1" fill="none" fill-rule="evenodd">
        <path d="M19,4.25 L19,5.375 L12.25,5.375 L12.25,5.9375 C12.25,6.17187617 12.2060551,6.39160054 12.1181641,6.59667969 C12.030273,6.80175884 11.910157,6.98046799 11.7578125,7.1328125 C11.605468,7.28515701 11.4267588,7.405273 11.2216797,7.49316406 C11.0166005,7.58105513 10.7968762,7.625 10.5625,7.625 C10.3281238,7.625 10.1083995,7.58105513 9.90332031,7.49316406 C9.69824116,7.405273 9.51953201,7.28515701 9.3671875,7.1328125 C9.21484299,6.98046799 9.094727,6.80175884 9.00683594,6.59667969 C8.91894487,6.39160054 8.875,6.17187617 8.875,5.9375 L8.875,5.375 L1,5.375 L1,4.25 L8.875,4.25 L8.875,3.6875 C8.875,3.45312383 8.91894487,3.23339946 9.00683594,3.02832031 C9.094727,2.82324116 9.21484299,2.64453201 9.3671875,2.4921875 C9.51953201,2.33984299 9.69824116,2.219727 9.90332031,2.13183594 C10.1083995,2.04394487 10.3281238,2 10.5625,2 C10.7968762,2 11.0166005,2.04394487 11.2216797,2.13183594 C11.4267588,2.219727 11.605468,2.33984299 11.7578125,2.4921875 C11.910157,2.64453201 12.030273,2.82324116 12.1181641,3.02832031 C12.2060551,3.23339946 12.25,3.45312383 12.25,3.6875 L12.25,4.25 L19,4.25 Z M15.0625,13.25 C15.2968762,13.25 15.5166005,13.2939449 15.7216797,13.3818359 C15.9267588,13.469727 16.105468,13.589843 16.2578125,13.7421875 C16.410157,13.894532 16.530273,14.0732412 16.6181641,14.2783203 C16.7060551,14.4833995 16.75,14.7031238 16.75,14.9375 L16.75,15.5 L19,15.5 L19,16.625 L16.75,16.625 L16.75,17.1875 C16.75,17.4218762 16.7060551,17.6416005 16.6181641,17.8466797 C16.530273,18.0517588 16.410157,18.230468 16.2578125,18.3828125 C16.105468,18.535157 15.9267588,18.655273 15.7216797,18.7431641 C15.5166005,18.8310551 15.2968762,18.875 15.0625,18.875 C14.8281238,18.875 14.6083995,18.8310551 14.4033203,18.7431641 C14.1982412,18.655273 14.019532,18.535157 13.8671875,18.3828125 C13.714843,18.230468 13.594727,18.0517588 13.5068359,17.8466797 C13.4189449,17.6416005 13.375,17.4218762 13.375,17.1875 L13.375,16.625 L1,16.625 L1,15.5 L13.375,15.5 L13.375,14.9375 C13.375,14.7031238 13.4189449,14.4833995 13.5068359,14.2783203 C13.594727,14.0732412 13.714843,13.894532 13.8671875,13.7421875 C14.019532,13.589843 14.1982412,13.469727 14.4033203,13.3818359 C14.6083995,13.2939449 14.8281238,13.25 15.0625,13.25 Z M4.9375,7.625 C5.17187617,7.625 5.39160054,7.66894487 5.59667969,7.75683594 C5.80175884,7.844727 5.98046799,7.96484299 6.1328125,8.1171875 C6.28515701,8.26953201 6.405273,8.44824116 6.49316406,8.65332031 C6.58105513,8.85839946 6.625,9.07812383 6.625,9.3125 L6.625,9.875 L19,9.875 L19,11 L6.625,11 L6.625,11.5625 C6.625,11.7968762 6.58105513,12.0166005 6.49316406,12.2216797 C6.405273,12.4267588 6.28515701,12.605468 6.1328125,12.7578125 C5.98046799,12.910157 5.80175884,13.030273 5.59667969,13.1181641 C5.39160054,13.2060551 5.17187617,13.25 4.9375,13.25 C4.70312383,13.25 4.48339946,13.2060551 4.27832031,13.1181641 C4.07324116,13.030273 3.89453201,12.910157 3.7421875,12.7578125 C3.58984299,12.605468 3.469727,12.4267588 3.38183594,12.2216797 C3.29394487,12.0166005 3.25,11.7968762 3.25,11.5625 L3.25,11 L1,11 L1,9.875 L3.25,9.875 L3.25,9.3125 C3.25,9.07812383 3.29394487,8.85839946 3.38183594,8.65332031 C3.469727,8.44824116 3.58984299,8.26953201 3.7421875,8.1171875 C3.89453201,7.96484299 4.07324116,7.844727 4.27832031,7.75683594 C4.48339946,7.66894487 4.70312383,7.625 4.9375,7.625 Z M5.5,9.3125 C5.5,9.16015549 5.44433649,9.02832087 5.33300781,8.91699219 C5.22167913,8.80566351 5.08984451,8.75 4.9375,8.75 C4.78515549,8.75 4.65332087,8.80566351 4.54199219,8.91699219 C4.43066351,9.02832087 4.375,9.16015549 4.375,9.3125 L4.375,11.5625 C4.375,11.7148445 4.43066351,11.8466791 4.54199219,11.9580078 C4.65332087,12.0693365 4.78515549,12.125 4.9375,12.125 C5.08984451,12.125 5.22167913,12.0693365 5.33300781,11.9580078 C5.44433649,11.8466791 5.5,11.7148445 5.5,11.5625 L5.5,9.3125 Z M11.125,3.6875 C11.125,3.53515549 11.0693365,3.40332087 10.9580078,3.29199219 C10.8466791,3.18066351 10.7148445,3.125 10.5625,3.125 C10.4101555,3.125 10.2783209,3.18066351 10.1669922,3.29199219 C10.0556635,3.40332087 10,3.53515549 10,3.6875 L10,5.9375 C10,6.08984451 10.0556635,6.22167913 10.1669922,6.33300781 C10.2783209,6.44433649 10.4101555,6.5 10.5625,6.5 C10.7148445,6.5 10.8466791,6.44433649 10.9580078,6.33300781 C11.0693365,6.22167913 11.125,6.08984451 11.125,5.9375 L11.125,3.6875 Z M15.625,14.9375 C15.625,14.7851555 15.5693365,14.6533209 15.4580078,14.5419922 C15.3466791,14.4306635 15.2148445,14.375 15.0625,14.375 C14.9101555,14.375 14.7783209,14.4306635 14.6669922,14.5419922 C14.5556635,14.6533209 14.5,14.7851555 14.5,14.9375 L14.5,17.1875 C14.5,17.3398445 14.5556635,17.4716791 14.6669922,17.5830078 C14.7783209,17.6943365 14.9101555,17.75 15.0625,17.75 C15.2148445,17.75 15.3466791,17.6943365 15.4580078,17.5830078 C15.5693365,17.4716791 15.625,17.3398445 15.625,17.1875 L15.625,14.9375 Z" id="icon" fill="#555555"></path>
    </g>
</svg>