<?xml version="1.0" encoding="UTF-8"?>
<svg width="20px" height="20px" viewBox="0 0 20 20" version="1.1" xmlns="http://www.w3.org/2000/svg" xmlns:xlink="http://www.w3.org/1999/xlink">
    <!-- Generator: Sketch 50.2 (55047) - http://www.bohemiancoding.com/sketch -->
    <title>icon-date</title>
    <desc>Created with Sketch.</desc>
    <defs></defs>
    <g id="icon-date" stroke="none" stroke-width="1" fill="none" fill-rule="evenodd" fill-opacity="0.44">
        <path d="M8.625,8.625 L9.5625,8.625 L9.5625,9.5625 L8.625,9.5625 L8.625,8.625 Z M11.4375,14.25 L12.375,14.25 L12.375,15.1875 L11.4375,15.1875 L11.4375,14.25 Z M14.25,8.625 L15.1875,8.625 L15.1875,9.5625 L14.25,9.5625 L14.25,8.625 Z M11.4375,8.625 L12.375,8.625 L12.375,9.5625 L11.4375,9.5625 L11.4375,8.625 Z M8.625,10.5 L9.5625,10.5 L9.5625,11.4375 L8.625,11.4375 L8.625,10.5 Z M5.8125,10.5 L6.75,10.5 L6.75,11.4375 L5.8125,11.4375 L5.8125,10.5 Z M14.25,10.5 L15.1875,10.5 L15.1875,11.4375 L14.25,11.4375 L14.25,10.5 Z M11.4375,10.5 L12.375,10.5 L12.375,11.4375 L11.4375,11.4375 L11.4375,10.5 Z M8.625,12.375 L9.5625,12.375 L9.5625,13.3125 L8.625,13.3125 L8.625,12.375 Z M5.8125,12.375 L6.75,12.375 L6.75,13.3125 L5.8125,13.3125 L5.8125,12.375 Z M14.25,12.375 L15.1875,12.375 L15.1875,13.3125 L14.25,13.3125 L14.25,12.375 Z M11.4375,12.375 L12.375,12.375 L12.375,13.3125 L11.4375,13.3125 L11.4375,12.375 Z M8.625,14.25 L9.5625,14.25 L9.5625,15.1875 L8.625,15.1875 L8.625,14.25 Z M5.8125,14.25 L6.75,14.25 L6.75,15.1875 L5.8125,15.1875 L5.8125,14.25 Z M18,3.9375 L18,17.0625 L3,17.0625 L3,3.9375 L5.8125,3.9375 L5.8125,3 L6.75,3 L6.75,3.9375 L14.25,3.9375 L14.25,3 L15.1875,3 L15.1875,3.9375 L18,3.9375 Z M3.9375,4.875 L3.9375,6.75 L17.0625,6.75 L17.0625,4.875 L15.1875,4.875 L15.1875,5.8125 L14.25,5.8125 L14.25,4.875 L6.75,4.875 L6.75,5.8125 L5.8125,5.8125 L5.8125,4.875 L3.9375,4.875 Z M17.0625,16.125 L17.0625,7.6875 L3.9375,7.6875 L3.9375,16.125 L17.0625,16.125 Z" id="Icon" fill="#000000"></path>
    </g>
</svg>