<?xml version="1.0" encoding="UTF-8"?>
<svg width="450px" height="128px" viewBox="0 0 450 128" version="1.1" xmlns="http://www.w3.org/2000/svg" xmlns:xlink="http://www.w3.org/1999/xlink">
    <!-- Generator: Sketch 50.2 (55047) - http://www.bohemiancoding.com/sketch -->
    <title>Logo / Large (Light)</title>
    <desc>Created with Sketch.</desc>
    <defs></defs>
    <g id="Logo-/-Large-(Light)" stroke="none" stroke-width="1" fill="none" fill-rule="evenodd">
        <g fill="#FFFFFF">
            <path d="M14.3347242,0.01812872 C14.3007525,-0.0226609 113.878435,0.01812872 113.878435,0.01812872 C123.341216,0.00881804588 127.9869,4.9824915 128,14.4363727 L128,114.220198 C127.9869,123.500723 123.341216,128.005316 114.171524,127.999995 L13.8018349,127.999995 C4.63391957,128.005316 -0.00465926907,123.264631 3.51181621e-06,114.220198 L3.51181621e-06,14.4363727 C-0.00465926907,4.74639941 5.15459676,0.00881804588 14.3347242,0.01812872 Z M110.764444,26.3908916 C117.233111,19.9004472 108.272,11.4306694 101.884444,17.8308916 L78.2577778,41.4575583 L24.1511111,27.1375583 L15.1111111,36.1775583 L59.7244444,59.644225 L41.6711111,77.6975583 L27.6444444,75.964225 L20.5244444,83.1108916 L36.4444444,91.484225 L44.7911111,107.377558 L51.9377778,100.257558 L50.2844444,86.3108916 L68.3377778,68.2575583 L91.3244444,112.577558 L100.337778,103.564225 L86.6311111,50.524225 L110.764444,26.3908916 Z" id="Icon"></path>
            <path d="M168.256,22 C169.322672,22 170.19733,22.1813315 170.88,22.544 L170.08,25.136 C169.567997,24.8799987 168.992003,24.752 168.352,24.752 C167.626663,24.752 167.034669,25.0026642 166.576,25.504 C166.117331,26.0053358 165.888,26.6719958 165.888,27.504 L165.888,29.488 L169.984,29.488 L169.984,32.176 L165.888,32.176 L165.888,45.168 L162.944,45.168 L162.944,32.176 L160,32.176 L160,29.488 L162.944,29.488 L162.944,27.216 C162.944,25.6586589 163.439995,24.4000048 164.432,23.44 C165.424005,22.4799952 166.698659,22 168.256,22 Z M178.88,45.68 C176.575988,45.68 174.677341,44.8906746 173.184,43.312 C171.690659,41.7333254 170.944,39.7386787 170.944,37.328 C170.944,34.9386547 171.669326,32.9493413 173.12,31.36 C174.570674,29.7706587 176.426655,28.976 178.688,28.976 C181.013345,28.976 182.863993,29.7279925 184.24,31.232 C185.616007,32.7360075 186.304,34.8426531 186.304,37.552 L186.272,37.872 L173.952,37.872 C173.994667,39.4080077 174.506662,40.6453286 175.488,41.584 C176.469338,42.5226714 177.64266,42.992 179.008,42.992 C180.885343,42.992 182.357328,42.0533427 183.424,40.176 L186.048,41.456 C185.343996,42.7786733 184.368006,43.8133296 183.12,44.56 C181.871994,45.3066704 180.458675,45.68 178.88,45.68 Z M174.176,35.44 L183.168,35.44 C183.082666,34.3519946 182.640004,33.4506702 181.84,32.736 C181.039996,32.0213298 179.968007,31.664 178.624,31.664 C177.514661,31.664 176.560004,32.0053299 175.76,32.688 C174.959996,33.3706701 174.432001,34.2879942 174.176,35.44 Z M201.152,40.816 C201.152,42.1813402 200.554673,43.3333286 199.36,44.272 C198.165327,45.2106714 196.661342,45.68 194.848,45.68 C193.269325,45.68 191.882673,45.2693374 190.688,44.448 C189.493327,43.6266626 188.640003,42.5440067 188.128,41.2 L190.752,40.08 C191.136002,41.0186714 191.695996,41.7493307 192.432,42.272 C193.168004,42.7946693 193.973329,43.056 194.848,43.056 C195.786671,43.056 196.570664,42.8533354 197.2,42.448 C197.829336,42.0426646 198.144,41.5626694 198.144,41.008 C198.144,40.0053283 197.376008,39.2693357 195.84,38.8 L193.152,38.128 C190.101318,37.3599962 188.576,35.8880109 188.576,33.712 C188.576,32.2826595 189.157328,31.1360043 190.32,30.272 C191.482672,29.4079957 192.970658,28.976 194.784,28.976 C196.170674,28.976 197.423994,29.3066634 198.544,29.968 C199.664006,30.6293366 200.447998,31.5146611 200.896,32.624 L198.272,33.712 C197.973332,33.0506634 197.488003,32.5333352 196.816,32.16 C196.143997,31.7866648 195.392004,31.6 194.56,31.6 C193.791996,31.6 193.104003,31.7919981 192.496,32.176 C191.887997,32.5600019 191.584,33.0293306 191.584,33.584 C191.584,34.4800045 192.426658,35.1199981 194.112,35.504 L196.48,36.112 C199.594682,36.8800038 201.152,38.4479882 201.152,40.816 Z M209.76,45.424 C208.479994,45.424 207.418671,45.0293373 206.576,44.24 C205.733329,43.4506627 205.301333,42.352007 205.28,40.944 L205.28,32.176 L202.528,32.176 L202.528,29.488 L205.28,29.488 L205.28,24.688 L208.224,24.688 L208.224,29.488 L212.064,29.488 L212.064,32.176 L208.224,32.176 L208.224,39.984 C208.224,41.0293386 208.426665,41.7386648 208.832,42.112 C209.237335,42.4853352 209.695997,42.672 210.208,42.672 C210.442668,42.672 210.671999,42.6453336 210.896,42.592 C211.120001,42.5386664 211.327999,42.4693338 211.52,42.384 L212.448,45.008 C211.679996,45.2853347 210.784005,45.424 209.76,45.424 Z M218.24,29.488 L218.24,45.168 L215.296,45.168 L215.296,29.488 L218.24,29.488 Z M229.696,45.168 L226.752,45.168 L220.416,29.488 L223.616,29.488 L228.224,41.648 L228.288,41.648 L232.96,29.488 L236.096,29.488 L229.696,45.168 Z M239.84,40.368 C239.84,41.1360038 240.16533,41.7759974 240.816,42.288 C241.46667,42.8000026 242.229329,43.056 243.104,43.056 C244.34134,43.056 245.445328,42.5973379 246.416,41.68 C247.386672,40.7626621 247.872,39.6853395 247.872,38.448 C246.954662,37.722663 245.674675,37.36 244.032,37.36 C242.837327,37.36 241.840004,37.6479971 241.04,38.224 C240.239996,38.8000029 239.84,39.5146624 239.84,40.368 Z M243.648,28.976 C245.824011,28.976 247.541327,29.5573275 248.8,30.72 C250.058673,31.8826725 250.688,33.4773232 250.688,35.504 L250.688,45.168 L247.872,45.168 L247.872,42.992 L247.744,42.992 C246.527994,44.784009 244.906677,45.68 242.88,45.68 C241.151991,45.68 239.706672,45.1680051 238.544,44.144 C237.381328,43.1199949 236.8,41.8400077 236.8,40.304 C236.8,38.6826586 237.413327,37.3920048 238.64,36.432 C239.866673,35.4719952 241.50399,34.992 243.552,34.992 C245.301342,34.992 246.741328,35.3119968 247.872,35.952 L247.872,35.28 C247.872,34.2559949 247.466671,33.3866702 246.656,32.672 C245.845329,31.9573298 244.896005,31.6 243.808,31.6 C242.165325,31.6 240.864005,32.2933264 239.904,33.68 L237.312,32.048 C238.74134,29.9999898 240.853319,28.976 243.648,28.976 Z M256.96,22.256 L256.96,45.168 L254.016,45.168 L254.016,22.256 L256.96,22.256 Z M169.687,91.418 C169.687,93.4580102 170.551158,95.1579932 172.2795,96.518 C174.007842,97.8780068 176.033655,98.558 178.357,98.558 C181.643683,98.558 184.576154,97.3396789 187.1545,94.903 C189.732846,92.4663211 191.022,89.6046831 191.022,86.318 C188.585321,84.3913237 185.185355,83.428 180.822,83.428 C177.648651,83.428 174.999511,84.1929923 172.8745,85.723 C170.749489,87.2530076 169.687,89.151322 169.687,91.418 Z M179.802,61.158 C185.582029,61.158 190.14365,62.7021512 193.487,65.7905 C196.83035,68.8788488 198.502,73.1146398 198.502,78.498 L198.502,104.168 L191.022,104.168 L191.022,98.388 L190.682,98.388 C187.451984,103.148024 183.14536,105.528 177.762,105.528 C173.171977,105.528 169.332849,104.168014 166.2445,101.448 C163.156151,98.7279864 161.612,95.3280204 161.612,91.248 C161.612,86.9413118 163.24115,83.5130128 166.4995,80.963 C169.75785,78.4129873 174.106973,77.138 179.547,77.138 C184.19369,77.138 188.018652,77.9879915 191.022,79.688 L191.022,77.903 C191.022,75.1829864 189.945344,72.8738428 187.792,70.9755 C185.638656,69.0771572 183.117014,68.128 180.227,68.128 C175.863645,68.128 172.407013,69.9696483 169.857,73.653 L162.972,69.318 C166.768686,63.8779728 172.37863,61.158 179.802,61.158 Z M226.722,104.168 L218.902,104.168 L202.072,62.518 L210.572,62.518 L222.812,94.818 L222.982,94.818 L235.392,62.518 L243.722,62.518 L226.722,104.168 Z M257.322,62.518 L257.322,104.168 L249.502,104.168 L249.502,62.518 L257.322,62.518 Z M272.792,91.418 C272.792,93.4580102 273.656158,95.1579932 275.3845,96.518 C277.112842,97.8780068 279.138655,98.558 281.462,98.558 C284.748683,98.558 287.681154,97.3396789 290.2595,94.903 C292.837846,92.4663211 294.127,89.6046831 294.127,86.318 C291.690321,84.3913237 288.290355,83.428 283.927,83.428 C280.753651,83.428 278.104511,84.1929923 275.9795,85.723 C273.854489,87.2530076 272.792,89.151322 272.792,91.418 Z M282.907,61.158 C288.687029,61.158 293.24865,62.7021512 296.592,65.7905 C299.93535,68.8788488 301.607,73.1146398 301.607,78.498 L301.607,104.168 L294.127,104.168 L294.127,98.388 L293.787,98.388 C290.556984,103.148024 286.25036,105.528 280.867,105.528 C276.276977,105.528 272.437849,104.168014 269.3495,101.448 C266.261151,98.7279864 264.717,95.3280204 264.717,91.248 C264.717,86.9413118 266.34615,83.5130128 269.6045,80.963 C272.86285,78.4129873 277.211973,77.138 282.652,77.138 C287.29869,77.138 291.123652,77.9879915 294.127,79.688 L294.127,77.903 C294.127,75.1829864 293.050344,72.8738428 290.897,70.9755 C288.743656,69.0771572 286.222014,68.128 283.332,68.128 C278.968645,68.128 275.512013,69.9696483 272.962,73.653 L266.077,69.318 C269.873686,63.8779728 275.48363,61.158 282.907,61.158 Z M326.087,104.848 C322.686983,104.848 319.867845,103.799677 317.6295,101.703 C315.391155,99.6063228 314.243667,96.6880187 314.187,92.948 L314.187,69.658 L306.877,69.658 L306.877,62.518 L314.187,62.518 L314.187,49.768 L322.007,49.768 L322.007,62.518 L332.207,62.518 L332.207,69.658 L322.007,69.658 L322.007,90.398 C322.007,93.1746806 322.545328,95.0588284 323.622,96.0505 C324.698672,97.0421716 325.916993,97.538 327.277,97.538 C327.900336,97.538 328.509497,97.4671674 329.1045,97.3255 C329.699503,97.1838326 330.251997,96.9996678 330.762,96.773 L333.227,103.743 C331.18699,104.47967 328.807014,104.848 326.087,104.848 Z M348.612,62.518 L348.612,104.168 L340.792,104.168 L340.792,62.518 L348.612,62.518 Z M356.007,83.343 C356.007,76.9396347 358.018647,71.6413543 362.042,67.448 C366.12202,63.2546457 371.250302,61.158 377.427,61.158 C383.603698,61.158 388.703647,63.2546457 392.727,67.448 C396.80702,71.6413543 398.847,76.9396347 398.847,83.343 C398.847,89.8030323 396.80702,95.1013127 392.727,99.238 C388.703647,103.431354 383.603698,105.528 377.427,105.528 C371.250302,105.528 366.12202,103.431354 362.042,99.238 C358.018647,95.0446457 356.007,89.7463654 356.007,83.343 Z M363.827,83.343 C363.827,87.8196891 365.13032,91.4463195 367.737,94.223 C370.34368,96.9996805 373.573647,98.388 377.427,98.388 C381.280353,98.388 384.51032,96.9996805 387.117,94.223 C389.72368,91.4463195 391.027,87.8196891 391.027,83.343 C391.027,78.9229779 389.72368,75.3246806 387.117,72.548 C384.453653,69.7146525 381.223686,68.298 377.427,68.298 C373.630314,68.298 370.400347,69.7146525 367.737,72.548 C365.13032,75.3246806 363.827,78.9229779 363.827,83.343 Z M405.137,62.518 L412.617,62.518 L412.617,68.298 L412.957,68.298 C414.147006,66.2579898 415.974488,64.5580068 418.4395,63.198 C420.904512,61.8379932 423.468653,61.158 426.132,61.158 C431.232026,61.158 435.156153,62.6171521 437.9045,65.5355 C440.652847,68.4538479 442.027,72.6046397 442.027,77.988 L442.027,104.168 L434.207,104.168 L434.207,78.498 C434.036999,71.697966 430.6087,68.298 423.922,68.298 C420.805318,68.298 418.198677,69.5588207 416.102,72.0805 C414.005323,74.6021793 412.957,77.6196491 412.957,81.133 L412.957,104.168 L405.137,104.168 L405.137,62.518 Z" id="Text"></path>
        </g>
    </g>
</svg>